<svg width="24" height="24" viewBox="0 0 24 24" fill="none" xmlns="http://www.w3.org/2000/svg">
<path fill-rule="evenodd" clip-rule="evenodd" d="M3 0.75H21C22.2426 0.75 23.25 1.75736 23.25 3V21C23.25 22.2426 22.2426 23.25 21 23.25H3C1.75736 23.25 0.75 22.2426 0.75 21V3C0.75 1.75736 1.75736 0.75 3 0.75ZM3 3V21H21V3H3ZM11.0247 12.0049H13.125V18.75H15.375V12.0049H17.6052V9.75494H15.375V8.625C15.375 8.00368 15.8787 7.5 16.5 7.5H17.625V5.25H16.5C14.636 5.25 13.125 6.76104 13.125 8.625V9.75494H11.0247V12.0049Z" fill="white"/>
</svg>
